HIERARCHY
ROOT Hips
{
	OFFSET -0.001795 -0.223333 0.028219
	CHANNELS 6 Xposition Yposition Zposition Zrotation Yrotation Xrotation 
	JOINT LeftUpLeg
	{
		OFFSET 0.069520 -0.091406 -0.006815
		CHANNELS 3 Zrotation Yrotation Xrotation
		JOINT LeftLeg
		{
			OFFSET 0.034277 -0.375199 -0.004496
			CHANNELS 3 Zrotation Yrotation Xrotation
			JOINT LeftFoot
			{
				OFFSET -0.013596 -0.397961 -0.043693
				CHANNELS 3 Zrotation Yrotation Xrotation
				JOINT LeftToe
				{
					OFFSET 0.026358 -0.055791 0.119288
					CHANNELS 3 Zrotation Yrotation Xrotation
					End Site
					{
						OFFSET 0.000000 0.000000 0.000000
					}
				}
			}
		}
	}
	JOINT RightUpLeg
	{
		OFFSET -0.067670 -0.090522 -0.004320
		CHANNELS 3 Zrotation Yrotation Xrotation
		JOINT RightLeg
		{
			OFFSET -0.038290 -0.382569 -0.008850
			CHANNELS 3 Zrotation Yrotation Xrotation
			JOINT RightFoot
			{
				OFFSET 0.015774 -0.398415 -0.042312
				CHANNELS 3 Zrotation Yrotation Xrotation
				JOINT RightToe
				{
					OFFSET -0.025372 -0.048144 0.123348
					CHANNELS 3 Zrotation Yrotation Xrotation
					End Site
					{
						OFFSET 0.000000 0.000000 0.000000
					}
				}
			}
		}
	}
	JOINT Spine
	{
		OFFSET -0.002533 0.108963 -0.026696
		CHANNELS 3 Zrotation Yrotation Xrotation
		JOINT Spine1
		{
			OFFSET 0.005487 0.135180 0.001092
			CHANNELS 3 Zrotation Yrotation Xrotation
			JOINT Spine2
			{
				OFFSET 0.001457 0.052922 0.025425
				CHANNELS 3 Zrotation Yrotation Xrotation
				JOINT Neck
				{
					OFFSET -0.002778 0.213870 -0.042857
					CHANNELS 3 Zrotation Yrotation Xrotation
					JOINT Head
					{
						OFFSET 0.005152 0.064970 0.051349
						CHANNELS 3 Zrotation Yrotation Xrotation
						End Site
						{
							OFFSET 0.000000 0.000000 0.000000
						}
					}
				}
				JOINT LeftShoulder
				{
					OFFSET 0.078845 0.121749 -0.034090
					CHANNELS 3 Zrotation Yrotation Xrotation
					JOINT LeftArm
					{
						OFFSET 0.090977 0.030469 -0.008868
						CHANNELS 3 Zrotation Yrotation Xrotation
						JOINT LeftForeArm
						{
							OFFSET 0.259612 -0.012772 -0.027456
							CHANNELS 3 Zrotation Yrotation Xrotation
							JOINT LeftHand
							{
								OFFSET 0.249234 0.008986 -0.001171
								CHANNELS 3 Zrotation Yrotation Xrotation
								End Site
								{
									OFFSET 0.000000 0.000000 0.000000
								}
							}
						}
					}
				}
				JOINT RightShoulder
				{
					OFFSET -0.081759 0.118833 -0.038615
					CHANNELS 3 Zrotation Yrotation Xrotation
					JOINT RightArm
					{
						OFFSET -0.096012 0.032551 -0.009143
						CHANNELS 3 Zrotation Yrotation Xrotation
						JOINT RightForeArm
						{
							OFFSET -0.253742 -0.013329 -0.021401
							CHANNELS 3 Zrotation Yrotation Xrotation
							JOINT RightHand
							{
								OFFSET -0.255298 0.007772 -0.005559
								CHANNELS 3 Zrotation Yrotation Xrotation
								End Site
								{
									OFFSET 0.000000 0.000000 0.000000
								}
							}
						}
					}
				}
			}
		}
	}
}
MOTION
Frames: 5
Frame Time: 0.050000
-0.009737 0.959914 -0.024055 0.178180 1.470459 -0.326353 7.434017 0.026666 5.585516 -2.174468 0.340208 -7.581492 -1.496398 3.992786 16.636791 0.000000 0.000000 0.000000 -2.339661 -0.398693 5.445471 -1.359556 -0.185585 -6.433488 -3.112559 -11.735260 17.910222 0.000000 0.000000 0.000000 -1.301932 -0.038597 1.624577 5.778198 -1.036646 -20.614162 -0.208346 -1.508923 30.389935 2.665086 -0.471496 -22.311704 0.000000 0.000000 0.000000 -12.888892 3.072788 -1.965346 -41.532074 -27.281696 1.811541 125.215681 -59.986449 -87.586120 0.000000 0.000000 0.000000 -5.355980 4.709783 1.579269 32.486897 10.435037 -2.415800 -102.657936 43.050123 -46.443568 0.000000 0.000000 0.000000 
-0.009617 0.959973 -0.024530 0.109292 0.807988 -0.400446 7.410930 0.049837 5.719946 -2.214022 0.345488 -7.460202 -1.058251 4.511954 16.491213 0.000000 0.000000 0.000000 -2.308733 -0.384725 5.339175 -1.269036 -0.171048 -6.057608 -3.011772 -11.642507 17.761349 0.000000 0.000000 0.000000 -1.471800 -0.036688 1.674355 5.965919 -1.095133 -20.698076 -0.148815 -1.356947 30.330163 2.663045 -0.526163 -22.095207 0.000000 0.000000 0.000000 -12.869740 3.025339 -1.898376 -42.458355 -27.227685 1.904145 129.642795 -61.310261 -94.059604 0.000000 0.000000 0.000000 -5.429588 4.804766 1.621700 32.185019 10.463860 -2.391361 -106.205475 43.611227 -50.067457 0.000000 0.000000 0.000000 
-0.009501 0.959975 -0.024919 0.057099 0.306149 -0.401689 7.319795 0.066382 5.647958 -2.206783 0.345222 -7.205020 -0.795867 4.787811 16.334888 0.000000 0.000000 0.000000 -2.401578 -0.361496 5.201228 -1.006975 -0.173611 -5.818592 -2.833384 -11.387449 17.574657 0.000000 0.000000 0.000000 -1.514320 -0.034740 1.640507 5.895545 -1.076764 -20.792707 -0.129520 -1.131441 30.442565 2.671788 -0.547960 -22.039977 0.000000 0.000000 0.000000 -13.431968 3.076911 -1.948895 -43.226761 -27.332131 2.013684 134.223944 -62.793095 -101.172697 0.000000 0.000000 0.000000 -5.317443 4.798089 1.624712 31.967456 10.077719 -2.475809 -110.775128 43.742955 -54.085126 0.000000 0.000000 0.000000 
-0.009331 0.959956 -0.025195 -0.038500 -0.216250 -0.478219 7.187504 0.090369 5.701954 -2.088882 0.339693 -6.960485 -0.446450 5.111737 15.888357 0.000000 0.000000 0.000000 -2.501065 -0.340712 5.092261 -0.809169 -0.166780 -5.435356 -2.688728 -11.197126 17.423129 0.000000 0.000000 0.000000 -1.395219 -0.041219 1.771211 5.837402 -1.079051 -20.692737 -0.217274 -0.933022 30.055376 2.637537 -0.587331 -21.432466 0.000000 0.000000 0.000000 -13.713247 2.940156 -1.887156 -43.985119 -26.800838 1.933238 136.675756 -63.208307 -104.565499 0.000000 0.000000 0.000000 -5.411072 5.034026 1.703198 31.605342 9.443596 -2.567088 -114.071248 43.469296 -56.815861 0.000000 0.000000 0.000000 
-0.009102 0.959745 -0.025395 0.085960 -0.650427 -0.584328 6.999318 0.113089 5.638021 -2.062505 0.335203 -6.561308 -0.333112 5.154760 15.646295 0.000000 0.000000 0.000000 -2.854408 -0.310568 5.074078 -0.486880 -0.165659 -4.981226 -2.667050 -11.176882 17.156890 0.000000 0.000000 0.000000 -1.290106 -0.047451 1.895191 5.605930 -1.005904 -20.922115 -0.347142 -0.703435 30.219292 2.619921 -0.597604 -21.284798 0.000000 0.000000 0.000000 -14.292003 3.083435 -1.988907 -44.861884 -26.124827 1.751362 139.831579 -63.726703 -109.027602 0.000000 0.000000 0.000000 -5.387081 4.656179 1.593637 31.099186 8.612300 -2.728140 -116.413206 42.905875 -58.368428 0.000000 0.000000 0.000000 
